<?xml version="1.0" ?><svg enable-background="new -150.757 50.416 369.044 466.902" id="Layer_1" version="1.1" viewBox="-150.757 50.416 369.044 466.902" xml:space="preserve" xmlns="http://www.w3.org/2000/svg" xmlns:xlink="http://www.w3.org/1999/xlink"><g id="Layer_1_1_"/><path d="M216.382,338.756c-5.255-4.204-10.937-7.297-16.431-10.288l-0.287-0.156c-5.196-2.828-11.285-6.034-17.78-8.312  c-5.616-1.968-11.77-3.644-18.861-5.136c-5.785-1.156-10.957-1.807-15.815-1.987c-5.28-0.201-10.484,0.308-15.52,0.796l-0.253,0.024  c-5.126,0.497-10.188,1.509-15.082,2.488l-0.306,0.061c-0.034,0.007-0.069,0.015-0.104,0.022  c-5.229,1.161-10.813,2.491-16.201,4.342c-4.841,1.663-9.911,3.738-15.497,6.343l-0.356,0.166  c-4.795,2.233-9.753,4.543-14.549,7.319c-3.272,1.894-6.366,4.07-9.357,6.175c-0.041,0.029-0.083,0.059-0.124,0.088  c2.743-5.601,4.693-11.417,6.33-16.534c1.856-5.801,3.886-12.7,4.856-19.896c0.606-4.496,0.967-8.668,1.093-12.742  c4.013,0.951,8.124,1.209,11.928,1.448c2.176,0.136,4.234,0.266,6.206,0.505c5.168,1.019,10.34,1.448,15.825,1.311  c1.313-0.032,2.629-0.05,3.945-0.067c3.678-0.049,7.479-0.1,11.313-0.475c6.862-0.274,13.693-1.232,20.307-2.848  c6.66-1.628,13.216-4.015,19.484-7.094c6.561-3.226,12.47-6.973,17.563-11.137c4.603-3.763,9.113-8.579,14.195-15.156  c0.048-0.063,0.095-0.126,0.14-0.19c3.934-5.622,7.033-10.847,9.475-15.973c2.422-5.081,5.156-11.024,6.961-17.252  c1.718-5.929,2.603-12.002,3.43-18.22c0.819-6.14,0.887-12.126,0.887-18.23c0-2.182-1.414-4.111-3.495-4.768  c-5.26-1.661-12.25-3.709-19.68-4.823c-6.158-0.923-13.425-1.812-20.639-1.402c-6.728,0.381-13.214,2.099-19.262,3.975  c-0.729-0.192-1.722-0.452-2.86-0.452c-0.776,0-1.542,0.181-2.236,0.528c-2.165,1.083-4.595,1.915-7.167,2.796  c-4.108,1.407-8.356,2.862-12.432,5.579c-0.274,0.183-0.529,0.392-0.762,0.625c-1.373,1.373-2.578,1.993-4.246,2.853  c-1.07,0.551-2.284,1.177-3.594,2.05c-0.108,0.072-0.214,0.148-0.315,0.229c-1.798,1.413-3.666,2.778-5.474,4.099  c-2.688,1.964-5.466,3.994-8.053,6.21c-3.589,3.074-8.273,7.194-12.67,11.801c-1.104,1.156-2.166,2.306-3.191,3.454  c-0.017-3.951-0.258-8.28-1.29-12.732c0.046-0.059,0.091-0.117,0.133-0.17c0.526-0.667,1.246-1.582,1.851-2.792  c0.022-0.043,0.043-0.087,0.063-0.131l1.071-2.296c2.261-4.833,4.599-9.832,6.374-15.059c1.904-5.607,3.541-11.79,4.865-18.375  c1.115-5.548,1.338-11.083,1.553-16.436c0.034-0.859,0.069-1.718,0.107-2.577c0.306-6.903,0.067-13.155-0.728-19.113  c-1.008-7.545-2.266-13.334-4.078-18.771c-0.023-0.072-0.05-0.144-0.077-0.214c-2.941-7.646-7.161-14.192-10.51-19.042  c-4.667-6.755-8.987-12.048-13.599-16.658c-0.047-0.047-0.095-0.093-0.144-0.139c-5.022-4.635-10.524-8.333-14.756-11.037  c-4.886-3.121-10.175-5.923-16.171-8.567c-5.569-2.456-11.083-4.475-16.857-6.174c-1.98-0.583-4.116,0.113-5.375,1.749  c-3.417,4.443-6.715,8.865-9.499,14.107C8.114,71.26,5.861,76.627,3.957,82.426c-1.804,5.498-3.083,11.205-3.803,16.963  c-0.008,0.068-0.016,0.137-0.021,0.206l-0.08,0.958c-0.484,5.779-0.985,11.754-0.36,17.736c0.684,6.536,2.594,12.589,4.436,17.712  c0.054,0.518,0.138,0.969,0.206,1.336c0.037,0.199,0.087,0.472,0.093,0.539c0,0.537,0.086,1.071,0.256,1.581  c0.369,1.106,0.721,2.208,1.07,3.3c1.218,3.812,2.477,7.753,4.324,11.494c1.626,3.295,3.544,6.313,5.398,9.232  c0.861,1.356,1.723,2.711,2.549,4.089c2.154,3.591,4.302,7.076,6.575,10.766l1.325,2.151c0.044,0.071,0.09,0.142,0.138,0.211  c0.08,0.116,0.143,0.22,0.199,0.312c0.267,0.432,0.827,1.337,1.841,2.084c0.317,1.073,0.833,2.49,2.068,3.726  c1.343,1.343,2.601,2.847,3.933,4.439c1.414,1.69,2.876,3.438,4.533,5.095c2.94,2.941,5.599,5.781,8.168,8.528  c2.119,2.265,4.296,4.591,6.665,7.013c-0.487,3.489-1.119,6.896-1.781,10.465c-0.203,1.094-0.406,2.19-0.606,3.292  c-0.499,2.753-1.005,5.617-1.477,8.556c-1.778-4.29-3.66-8.294-5.695-12.126c-3.615-6.807-6.937-12.162-10.454-16.851  c-3.598-4.795-7.975-10.338-13.15-15.087c-5.123-4.701-11.202-8.264-16.565-11.408c-5.01-2.937-11.244-6.591-18.183-8.782  c-0.487-0.154-0.995-0.232-1.505-0.232c-1.729,0-2.843-0.558-4.529-1.402l-0.182-0.091c-0.211-0.106-0.43-0.196-0.655-0.271  c-4.294-1.431-8.694-1.611-12.948-1.786c-2.475-0.101-4.813-0.197-6.883-0.542c-0.271-0.045-0.546-0.068-0.822-0.068  c-2.818,0-5.279,0.314-7.66,0.618c-2.166,0.276-4.212,0.538-6.394,0.538c-0.166,0-0.332,0.008-0.497,0.025  c-4.459,0.445-8.457,1.805-12.323,3.119c-1.073,0.365-2.147,0.73-3.229,1.074c-2.372,0.751-4.905,1.399-7.587,2.085  c-2.364,0.604-4.809,1.229-7.207,1.949c-2.115,0.634-3.563,2.581-3.563,4.789c0,6.841,1.16,14.504,3.447,22.775  c2.083,7.53,5.639,14.638,8.85,20.605c3.758,7.508,7.292,13.308,11.121,18.247c3.656,4.717,8.255,9.998,14.89,13.997  c0.378,1.019,1.018,1.892,1.914,2.61c0.275,0.221,0.574,0.412,0.89,0.569c1.657,0.829,3.214,1.932,4.862,3.1  c1.882,1.334,3.83,2.714,6.172,3.886l2.146,1.077c4.452,2.24,9.056,4.556,13.834,6.425c5.099,1.995,10.323,3.432,15.375,4.822  l1.544,0.426c5.957,1.647,11.793,2.919,17.346,3.782c4.996,0.776,9.982,0.891,14.804,1.001c0.98,0.022,1.961,0.045,2.942,0.073  c1.262,0.036,2.515,0.088,3.763,0.139c2.504,0.103,5.065,0.205,7.671,0.189c-0.502,4.397-1.054,8.62-2.028,12.831  c-1.271,5.493-3.109,10.813-5.056,16.445l-0.635,1.839c-2.195,6.376-4.904,12.541-7.265,17.729c-1.32,2.9-2.671,5.703-4.108,8.512  c-1.033-1.581-2.111-3.097-3.176-4.594c-0.563-0.791-1.132-1.591-1.701-2.408c-1.562-2.247-3.1-4.538-4.649-6.844  c-1.737-2.587-3.534-5.261-5.381-7.899c-0.031-0.045-0.063-0.089-0.096-0.133c-3.442-4.589-7.151-7.534-11.294-10.642  c-1.989-1.491-3.962-2.997-5.936-4.503c-1.995-1.522-3.99-3.045-6.001-4.554c-0.24-0.18-0.496-0.338-0.764-0.472  c-0.963-0.482-1.617-0.825-2.271-1.168c-0.433-0.228-0.866-0.455-1.377-0.717c-0.503-0.796-1.64-2.387-3.786-2.928  c-5.917-2.86-11.98-4.576-17.852-6.238l-0.473-0.134c-6.863-1.943-13.08-3.605-19.671-4.262c-6.365-0.634-12.665-0.27-18.757,0.083  l-1.276,0.073c-6.73,0.384-13.31,0.833-19.807,2.088c-6.977,1.347-13.278,2.918-19.265,4.804  c-6.018,1.897-11.707,4.195-18.397,7.062c-2.256,0.967-3.477,3.427-2.882,5.808c1.439,5.76,3.356,11.742,5.859,18.29  c0.51,1.334,1.013,2.671,1.515,4.006c1.713,4.554,3.485,9.264,5.497,13.686c0.078,0.173,0.167,0.341,0.264,0.503  c2.926,4.877,6.567,10.945,10.834,16.278c0.115,0.145,0.238,0.282,0.369,0.412c0.569,0.569,1.185,1.027,1.729,1.433  c0.526,0.392,1.247,0.928,1.404,1.242c0.045,0.091,0.093,0.18,0.144,0.268c0.144,0.933,0.545,2.393,1.872,3.757  c0.602,0.642,1.201,1.287,1.8,1.934c3.184,3.43,6.475,6.977,10.26,10.132c4.903,4.087,9.464,7.408,13.941,10.153  c5.784,3.547,10.7,6.08,15.469,7.971c5.228,2.075,10.667,3.059,15.928,4.011l1.042,0.188c0.051,0.01,0.102,0.019,0.153,0.025  c7.507,1.127,14.282,1.569,20.716,1.358c5.689-0.187,13.17-0.578,20.586-1.968c1.923-0.36,3.844-0.778,5.74-1.233  c-1.319,2.151-2.342,4.448-3.34,6.687c-0.825,1.853-1.675,3.761-2.677,5.534c-0.207,0.153-0.457,0.326-0.676,0.477  c-0.718,0.496-1.612,1.112-2.435,1.935c-0.38,0.38-0.696,0.818-0.937,1.299c-1.819,3.639-3.938,6.572-6.391,9.969  c-1.177,1.63-2.39,3.31-3.654,5.185c-0.127,0.104-0.274,0.213-0.482,0.366c-0.485,0.356-1.148,0.846-1.916,1.613  c-0.185,0.185-0.354,0.383-0.508,0.595c-3.883,5.339-8.659,10.005-12.831,13.958c-2.423,2.296-5.053,4.399-7.838,6.626  c-2.355,1.884-4.79,3.831-7.155,5.952c-2.856,2.27-6.148,4.278-9.629,6.402c-2.152,1.313-4.376,2.671-6.642,4.175  c-4.398,2.417-9.14,4.927-14.058,6.966l-1.811,0.754c-4.484,1.871-8.72,3.638-13.058,4.837c-3.999,1.107-8.16,1.649-12.565,2.224  c-1.015,0.133-2.029,0.265-3.042,0.404l-0.635,0.088c-5.195,0.717-10.102,1.394-15.085,1.394c-5.208,0-9.392,3.406-11.422,5.437  c-3.936,3.936-5.249,9.524-3.696,15.735c0.088,0.354,0.215,0.697,0.378,1.023c1.481,2.963,5.99,11.979,14.748,11.979  c0.087,0,0.175-0.002,0.263-0.007c7.375-0.388,13.885-0.983,19.899-1.82c7.215-1.002,14.318-2.763,19.7-4.185  c7.3-1.927,13.588-4.081,19.312-6.625c4.086-1.907,8.012-4.05,11.808-6.121c1.052-0.574,2.104-1.148,3.158-1.717l0.354-0.191  c4.724-2.547,9.608-5.181,14.362-8.145c5.027-3.134,9.634-6.202,14.085-9.382c0.224-0.16,0.434-0.338,0.629-0.533  c0.932-0.932,1.456-1.802,1.802-2.377c0.064-0.106,0.113-0.188,0.152-0.249c5.883-3.996,10.805-8.434,15.783-13.046  c4.991-4.625,10.152-9.408,14.759-14.714c3.077-3.543,6.057-7.275,8.939-10.885c1.334-1.671,2.676-3.352,4.041-5.03  c0.028-0.035,0.055-0.069,0.082-0.104c2.21-2.873,4.052-5.842,5.833-8.713c1.022-1.649,1.988-3.206,3.003-4.719  c1.094-1.63,2.255-3.199,3.484-4.862c1.95-2.638,3.966-5.364,5.697-8.352c1.732-2.988,3.238-6.157,4.688-9.24  c3.472,2.572,7.063,5.13,10.872,7.2c5.712,3.101,11.627,5.524,17.167,7.683c4.392,1.711,8.958,2.916,13.375,4.081  c1.49,0.394,2.988,0.789,4.491,1.206c0.377,0.105,0.766,0.165,1.157,0.18c0.199,0.034,0.615,0.138,0.898,0.208  c0.71,0.175,1.49,0.368,2.307,0.453c5.254,1.363,10.566,2.137,15.095,2.715c4.762,0.606,10.313,1.24,15.922,1.076  c5.235-0.154,10.323-1.173,15.245-2.158l0.594-0.118c0.103-0.021,0.205-0.045,0.308-0.072c1.505-0.4,3.006-0.786,4.498-1.169  c5.889-1.512,11.979-3.074,17.658-5.479c6.592-2.791,12.659-6.866,18.499-12.433c1.341,0.093,3.22-0.117,4.868-1.717  c4.221-3.962,8.078-8.332,11.179-11.847c3.908-4.427,7.265-8.592,10.26-12.731c3.279-4.532,6.165-9.295,8.796-13.768  c2.996-5.097,5.507-9.801,7.677-14.383c0.018-0.038,0.035-0.076,0.052-0.114C219.021,342.255,217.813,339.907,216.382,338.756z   M201.407,354.541c-2.506,4.26-5.242,8.779-8.277,12.975c-2.805,3.876-5.963,7.794-9.655,11.977  c-2.64,2.991-5.853,6.632-9.264,9.964c-1.361-0.096-3.291,0.111-4.967,1.788c-5.34,5.339-10.808,9.151-16.718,11.652  c-4.991,2.114-10.457,3.518-16.244,5.002c-1.472,0.378-2.952,0.758-4.435,1.152l-0.442,0.089c-4.723,0.945-9.184,1.838-13.575,1.967  c-4.894,0.145-9.98-0.441-14.364-1c-4.554-0.581-9.433-1.296-14.258-2.582c-0.362-0.097-0.733-0.152-1.107-0.166  c-0.198-0.034-0.615-0.138-0.898-0.208c-0.698-0.173-1.466-0.362-2.268-0.449c-1.382-0.38-2.76-0.743-4.13-1.105  c-4.338-1.145-8.435-2.226-12.298-3.73c-5.235-2.039-10.8-4.316-16.023-7.152c-3.89-2.113-7.635-4.908-11.601-7.868  c-0.991-0.74-1.982-1.479-2.976-2.208c-1.188-0.872-2.699-1.175-4.132-0.829c-1.432,0.347-2.638,1.307-3.297,2.624  c-0.849,1.698-1.671,3.448-2.467,5.141c-1.429,3.04-2.906,6.184-4.512,8.953c-1.453,2.506-3.218,4.895-5.087,7.423  c-1.241,1.679-2.524,3.415-3.744,5.232c-1.116,1.662-2.176,3.37-3.2,5.022c-1.713,2.763-3.333,5.374-5.219,7.832  c-1.368,1.685-2.714,3.37-4.052,5.047c-2.949,3.692-5.733,7.181-8.675,10.567c-4.251,4.896-8.989,9.287-14.053,13.979  c-4.792,4.441-9.553,8.732-15.092,12.426c-0.274,0.183-0.529,0.392-0.762,0.625c-0.932,0.932-1.456,1.802-1.802,2.377  c-0.079,0.13-0.134,0.221-0.176,0.287c-4.125,2.931-8.405,5.773-13.065,8.678c-4.487,2.798-9.23,5.355-13.817,7.829l-0.355,0.191  c-1.069,0.576-2.135,1.158-3.202,1.74c-3.661,1.998-7.447,4.064-11.162,5.8c-5.146,2.285-10.941,4.267-17.72,6.057  c-5.112,1.351-11.836,3.02-18.524,3.948c-5.683,0.79-11.858,1.356-18.874,1.729c-0.963-0.051-2.864-0.943-5.454-5.937  c-0.786-3.76,0.686-5.231,1.183-5.729c1.523-1.522,3.23-2.507,4.351-2.507c5.67,0,11.152-0.757,16.453-1.488l0.632-0.087  c0.989-0.136,1.98-0.265,2.971-0.395c4.555-0.594,9.264-1.207,13.939-2.501c4.942-1.367,9.669-3.339,14.242-5.246l1.791-0.745  c5.434-2.254,10.532-4.958,15.233-7.544c0.124-0.068,0.245-0.143,0.363-0.221c2.161-1.44,4.358-2.781,6.482-4.077  c3.805-2.322,7.399-4.516,10.777-7.218c0.076-0.061,0.149-0.123,0.221-0.188c2.184-1.966,4.542-3.853,6.824-5.677  c2.823-2.258,5.742-4.592,8.47-7.177c4.399-4.169,9.438-9.095,13.758-14.951c0.143-0.122,0.303-0.24,0.547-0.42  c0.485-0.357,1.149-0.846,1.916-1.613c0.233-0.232,0.442-0.487,0.625-0.762c1.281-1.922,2.549-3.677,3.775-5.375  c2.407-3.333,4.69-6.494,6.749-10.416c0.186-0.135,0.396-0.278,0.583-0.407c0.718-0.496,1.612-1.112,2.434-1.935  c0.289-0.289,0.542-0.612,0.752-0.963c1.486-2.477,2.573-4.917,3.625-7.277c1.082-2.429,2.106-4.729,3.357-6.478  c1.738-1.81,2.972-3.755,4.066-5.482c1.003-1.582,1.869-2.948,2.978-4.058c1.629-1.629,1.934-4.16,0.738-6.13  c-1.195-1.969-3.584-2.868-5.779-2.173c-5.904,1.863-12.26,3.756-18.737,4.97c-6.75,1.264-13.739,1.627-19.074,1.802  c-5.798,0.188-11.959-0.215-18.83-1.242l-0.972-0.176c-4.998-0.904-9.719-1.759-14.021-3.467c-4.222-1.674-8.647-3.961-13.929-7.2  c-4.062-2.49-8.237-5.535-12.764-9.309c-3.293-2.746-6.228-5.907-9.334-9.254c-0.41-0.442-0.82-0.884-1.23-1.324  c-0.146-0.784-0.479-1.854-1.307-2.923c-1.213-2.067-2.895-3.319-4.041-4.172c-0.166-0.124-0.375-0.28-0.511-0.386  c-3.678-4.656-6.983-10.14-9.668-14.613c-1.824-4.042-3.428-8.305-5.124-12.813c-0.508-1.353-1.018-2.706-1.534-4.056  c-1.762-4.609-3.212-8.906-4.392-13.021c4.755-1.98,9.054-3.635,13.476-5.028c5.618-1.77,11.557-3.249,18.155-4.523  c5.898-1.139,11.859-1.545,18.48-1.922l1.284-0.074c5.969-0.345,11.607-0.673,17.189-0.115c5.776,0.575,11.541,2.121,17.938,3.932  l0.474,0.135c5.533,1.565,11.25,3.185,16.452,5.73c0.268,0.383,0.616,0.827,1.07,1.28c0.38,0.381,0.819,0.696,1.3,0.937  c0.963,0.482,1.617,0.825,2.271,1.168c0.607,0.319,1.215,0.638,2.037,1.053c1.869,1.403,3.724,2.819,5.58,4.235  c1.995,1.522,3.99,3.045,6.001,4.554c3.621,2.716,6.604,5.074,9.246,8.578c1.775,2.538,3.528,5.147,5.224,7.671  c1.543,2.299,3.14,4.675,4.739,6.976c0.589,0.849,1.179,1.678,1.763,2.498c2.736,3.847,5.1,7.169,6.555,11.172  c0.667,1.835,2.34,3.113,4.285,3.274c1.95,0.168,3.807-0.823,4.767-2.522c3.38-5.979,6.217-11.539,8.928-17.497  c2.459-5.404,5.287-11.843,7.618-18.617l0.631-1.827c1.945-5.629,3.957-11.45,5.347-17.457c1.301-5.62,1.921-11.22,2.521-16.634  c0.116-1.053,0.233-2.109,0.355-3.169c0.174-1.506-0.345-3.009-1.411-4.087c-1.064-1.078-2.562-1.613-4.07-1.459  c-4.1,0.424-8.117,0.259-12.37,0.084c-1.29-0.053-2.583-0.106-3.888-0.144c-1-0.028-2-0.051-3-0.074  c-4.705-0.108-9.15-0.209-13.497-0.886c-5.174-0.803-10.63-1.994-16.217-3.539l-1.556-0.429c-4.804-1.322-9.772-2.689-14.385-4.493  c-4.343-1.699-8.54-3.811-12.982-6.045l-2.168-1.088c-1.657-0.829-3.214-1.932-4.861-3.1c-1.35-0.957-2.733-1.937-4.271-2.847  c-0.404-1.072-1.102-1.977-2.087-2.702c-0.189-0.14-0.388-0.265-0.594-0.376c-5.95-3.204-10.155-8.025-13.482-12.318  c-3.476-4.485-6.595-9.623-10.114-16.66c-0.022-0.045-0.046-0.09-0.07-0.135c-2.957-5.49-6.226-11.993-8.052-18.596  c-1.627-5.885-2.617-11.368-2.955-16.354c1.041-0.275,2.087-0.543,3.117-0.806c2.699-0.69,5.49-1.404,8.131-2.241  c1.147-0.364,2.287-0.751,3.426-1.138c3.407-1.158,6.629-2.254,9.872-2.613c2.705-0.019,5.085-0.323,7.389-0.617  c2.04-0.26,3.973-0.507,6.015-0.535c2.543,0.389,5.149,0.496,7.675,0.599c3.593,0.147,6.993,0.287,9.88,1.18  c2.004,1.002,4.462,2.19,7.99,2.359c5.617,1.876,10.849,4.943,15.484,7.661c5.174,3.033,10.524,6.169,14.862,10.149  c4.575,4.198,8.589,9.292,11.912,13.72c3.198,4.264,6.255,9.202,9.621,15.541c2.728,5.136,5.169,10.632,7.462,16.802  c2.151,5.782,4.049,11.964,5.487,17.878c0.611,2.515,3.042,4.148,5.599,3.763c2.56-0.383,4.403-2.655,4.251-5.238  c-0.319-5.441-0.158-11.043,0.466-16.199c0.682-5.623,1.643-11.177,2.579-16.342c0.197-1.088,0.398-2.171,0.599-3.251  c0.805-4.338,1.637-8.824,2.186-13.486c0.179-1.52-0.349-3.038-1.431-4.12c-2.941-2.941-5.599-5.781-8.168-8.528  c-2.626-2.807-5.342-5.708-8.4-8.767c-1.343-1.343-2.601-2.847-3.933-4.439c-1.292-1.544-2.625-3.137-4.109-4.665  c-0.023-0.084-0.046-0.17-0.069-0.256c-0.31-1.102-0.778-2.767-2.202-4.191c-0.356-0.356-0.762-0.653-1.199-0.885l-1.081-1.756  c-2.257-3.664-4.39-7.125-6.513-10.665c-0.871-1.451-1.777-2.879-2.685-4.308c-1.792-2.819-3.483-5.483-4.872-8.296  c-1.516-3.07-2.608-6.49-3.765-10.11c-0.295-0.923-0.592-1.852-0.898-2.785c-0.053-0.553-0.142-1.031-0.214-1.417  c-0.037-0.199-0.087-0.472-0.093-0.539c0-0.583-0.102-1.161-0.301-1.709c-1.707-4.693-3.532-10.265-4.134-16.015  c-0.527-5.045-0.087-10.299,0.379-15.861l0.072-0.859c0.643-5.087,1.776-10.128,3.369-14.984c1.726-5.258,3.754-10.096,6.029-14.379  c1.876-3.534,4.117-6.762,6.496-9.942c4.187,1.353,8.262,2.909,12.37,4.72c5.522,2.435,10.37,5,14.819,7.843  c3.863,2.468,8.857,5.819,13.284,9.891c4.147,4.156,8.08,8.989,12.37,15.198c3.017,4.37,6.802,10.227,9.364,16.844  c1.586,4.785,2.703,9.981,3.617,16.825c0.717,5.366,0.929,11.041,0.649,17.346c-0.039,0.872-0.074,1.745-0.109,2.619  c-0.208,5.191-0.405,10.095-1.365,14.867c-1.239,6.166-2.763,11.929-4.529,17.13c-1.599,4.706-3.719,9.239-5.963,14.038  l-1.043,2.233c-0.153,0.289-0.427,0.636-0.741,1.035c-0.93,1.182-2.487,3.159-2.487,6.138c0,0.444,0.06,0.887,0.176,1.315  c1.35,4.947,1.379,10.142,1.301,14.622c-0.063,3.584-0.226,8.056-0.861,12.434c-0.344,1.071-0.58,2.324-0.58,3.799  c0,2.57,1.949,4.722,4.507,4.976c2.566,0.26,4.893-1.475,5.396-3.995c0.145-0.723,0.275-1.45,0.394-2.178  c0.13-0.247,0.313-0.542,0.563-0.945c0.28-0.449,0.592-0.946,0.901-1.524c2.936-4.079,6.251-8.041,10.129-12.102  c4.089-4.285,8.53-8.188,11.942-11.111c2.293-1.964,4.797-3.794,7.447-5.731c1.822-1.332,3.705-2.708,5.584-4.178  c0.796-0.516,1.614-0.938,2.479-1.383c1.891-0.974,4.02-2.071,6.343-4.286c2.91-1.854,6.24-2.995,9.757-4.199  c2.248-0.77,4.559-1.562,6.827-2.571c1.047,0.267,2.626,0.585,4.05,0.137c5.754-1.817,11.915-3.545,17.975-3.889  c6.296-0.353,12.652,0.418,18.59,1.308c5.237,0.785,10.329,2.112,14.643,3.392c-0.043,4.475-0.205,8.874-0.784,13.219  c-0.775,5.827-1.598,11.493-3.123,16.757c-1.595,5.506-4.131,11.008-6.384,15.734c-2.187,4.593-4.991,9.318-8.572,14.444  c-4.575,5.912-8.561,10.182-12.539,13.435c-4.504,3.683-9.767,7.015-15.643,9.904c-5.619,2.76-11.49,4.898-17.448,6.354  c-6.011,1.468-12.225,2.335-18.469,2.576c-0.102,0.004-0.203,0.011-0.305,0.021c-3.458,0.346-6.93,0.393-10.606,0.441  c-1.354,0.019-2.708,0.036-4.061,0.07c-4.795,0.113-9.309-0.259-13.803-1.158c-0.119-0.023-0.239-0.043-0.36-0.058  c-2.331-0.292-4.701-0.44-6.993-0.584c-5.663-0.355-11.012-0.691-15.098-3.026c-1.578-0.902-3.521-0.876-5.073,0.066  c-1.553,0.942-2.474,2.652-2.403,4.468c0.228,5.916-0.084,11.772-0.982,18.429c-0.867,6.427-2.746,12.799-4.471,18.186  c-1.746,5.462-3.864,11.757-6.901,17.345c-3.186,5.863-7.461,11.164-10.83,15.127c-1.263,1.485-1.547,3.568-0.729,5.337  c0.802,1.733,2.519,2.855,4.421,2.9l0.094,0.022c0.475,0.117,1.269,0.313,2.378,0.313c1.069,0,2.111-0.343,2.972-0.979  c4.201-3.105,8.605-6.208,13.09-9.221c1.548-1.041,3.067-2.109,4.579-3.173c2.942-2.07,5.723-4.026,8.612-5.699  c4.411-2.554,9.165-4.768,13.762-6.909l0.358-0.167c5.266-2.455,10.017-4.401,14.521-5.949c4.903-1.684,10.139-2.93,15.068-4.025  l0.254-0.051c4.866-0.974,9.462-1.893,14.085-2.341l0.252-0.024c4.926-0.477,9.578-0.924,14.186-0.757  c4.316,0.161,8.971,0.751,14.177,1.791c6.615,1.392,12.361,2.954,17.563,4.777c5.793,2.03,11.232,4.896,16.308,7.657l0.285,0.155  c3.996,2.175,8.097,4.408,11.872,7.019C205.387,347.546,203.527,350.936,201.407,354.541z"/></svg>